<?xml version="1.0" encoding="utf-8"?>
<!-- Generator: Adobe Illustrator 26.5.0, SVG Export Plug-In . SVG Version: 6.00 Build 0)  -->
<svg version="1.1" id="Layer_1" xmlns="http://www.w3.org/2000/svg" xmlns:xlink="http://www.w3.org/1999/xlink" x="0px" y="0px"
	 viewBox="0 0 127.2 115.4" style="enable-background:new 0 0 127.2 115.4;" xml:space="preserve">
<style type="text/css">
	.st0{fill:#CAD199;stroke:#405915;stroke-width:5;}
	.st1{fill:none;stroke:#732B1B;stroke-width:5;stroke-linecap:round;stroke-linejoin:round;}
	.st2{fill:none;stroke:#732B1B;stroke-width:3;stroke-linecap:round;stroke-linejoin:round;}
	.st3{fill:#C8C8C8;stroke:#732B1B;stroke-width:2;stroke-linecap:round;stroke-linejoin:round;}
	.st4{font-family:'Bravura';}
	.st5{font-size:28.8085px;}
</style>
<g id="Layer_4">
	<path class="st0" d="M124.7,99.7c0,7.3-5.9,13.2-13.2,13.2H15.7c-7.3,0-13.2-5.9-13.2-13.2v-84c0-7.3,5.9-13.2,13.2-13.2h95.8
		c7.3,0,13.2,5.9,13.2,13.2L124.7,99.7L124.7,99.7z"/>
</g>
<path class="st1" d="M220.9,16.9"/>
<path class="st1" d="M129.5,102.5"/>
<path class="st2" d="M28.2,110.7"/>
<path class="st2" d="M31,108.9c1.5-7.5,3.8-14.8,6.8-21.8c2.9-6.9,6.5-13.5,10.7-19.7s8.9-11.9,14.1-17.1c5.2-5.2,11-10,17.1-14.1
	s12.8-7.8,19.7-10.7c6.9-2.9,14.2-5.2,21.8-6.8"/>
<line class="st3" x1="55.8" y1="37.4" x2="64.8" y2="46.4"/>
<path class="st3" d="M30.7,86.8"/>
<line class="st3" x1="31" y1="68.6" x2="42.5" y2="74.2"/>
<line class="st3" x1="86.2" y1="15.7" x2="91.9" y2="27.2"/>
<text transform="matrix(1 0 0 1 43.925 33.6339)" class="st4 st5"></text>
</svg>
