<?xml version="1.0" encoding="utf-8"?>
<!-- Generator: Adobe Illustrator 16.0.0, SVG Export Plug-In . SVG Version: 6.00 Build 0)  -->
<!DOCTYPE svg PUBLIC "-//W3C//DTD SVG 1.1//EN" "http://www.w3.org/Graphics/SVG/1.1/DTD/svg11.dtd">
<svg version="1.1" id="Layer_1" xmlns="http://www.w3.org/2000/svg" xmlns:xlink="http://www.w3.org/1999/xlink" x="0px" y="0px"
	 width="127.229px" height="115.445px" viewBox="0 0 127.229 115.445" enable-background="new 0 0 127.229 115.445"
	 xml:space="preserve">
<metadata><?xpacket begin="﻿" id="W5M0MpCehiHzreSzNTczkc9d"?>
<x:xmpmeta xmlns:x="adobe:ns:meta/" x:xmptk="Adobe XMP Core 5.3-c011 66.145661, 2012/02/06-14:56:27        ">
   <rdf:RDF xmlns:rdf="http://www.w3.org/1999/02/22-rdf-syntax-ns#">
      <rdf:Description rdf:about=""
            xmlns:xmp="http://ns.adobe.com/xap/1.0/"
            xmlns:xmpGImg="http://ns.adobe.com/xap/1.0/g/img/">
         <xmp:CreateDate>2012-09-24T02:42:02+02:00</xmp:CreateDate>
         <xmp:ModifyDate>2012-09-24T02:42:02+02:00</xmp:ModifyDate>
         <xmp:CreatorTool>Adobe Illustrator CS6 (Macintosh)</xmp:CreatorTool>
         <xmp:MetadataDate>2012-09-24T02:42:02+02:00</xmp:MetadataDate>
         <xmp:Thumbnails>
            <rdf:Alt>
               <rdf:li rdf:parseType="Resource">
                  <xmpGImg:width>256</xmpGImg:width>
                  <xmpGImg:height>136</xmpGImg:height>
                  <xmpGImg:format>JPEG</xmpGImg:format>
                  <xmpGImg:image>/9j/4AAQSkZJRgABAgEASABIAAD/7QAsUGhvdG9zaG9wIDMuMAA4QklNA+0AAAAAABAASAAAAAEA&#xA;AQBIAAAAAQAB/+4ADkFkb2JlAGTAAAAAAf/bAIQABgQEBAUEBgUFBgkGBQYJCwgGBggLDAoKCwoK&#xA;DBAMDAwMDAwQDA4PEA8ODBMTFBQTExwbGxscHx8fHx8fHx8fHwEHBwcNDA0YEBAYGhURFRofHx8f&#xA;Hx8fHx8fHx8fHx8fHx8fHx8fHx8fHx8fHx8fHx8fHx8fHx8fHx8fHx8fHx8f/8AAEQgAiAEAAwER&#xA;AAIRAQMRAf/EAaIAAAAHAQEBAQEAAAAAAAAAAAQFAwIGAQAHCAkKCwEAAgIDAQEBAQEAAAAAAAAA&#xA;AQACAwQFBgcICQoLEAACAQMDAgQCBgcDBAIGAnMBAgMRBAAFIRIxQVEGE2EicYEUMpGhBxWxQiPB&#xA;UtHhMxZi8CRygvElQzRTkqKyY3PCNUQnk6OzNhdUZHTD0uIIJoMJChgZhJRFRqS0VtNVKBry4/PE&#xA;1OT0ZXWFlaW1xdXl9WZ2hpamtsbW5vY3R1dnd4eXp7fH1+f3OEhYaHiImKi4yNjo+Ck5SVlpeYmZ&#xA;qbnJ2en5KjpKWmp6ipqqusra6voRAAICAQIDBQUEBQYECAMDbQEAAhEDBCESMUEFURNhIgZxgZEy&#xA;obHwFMHR4SNCFVJicvEzJDRDghaSUyWiY7LCB3PSNeJEgxdUkwgJChgZJjZFGidkdFU38qOzwygp&#xA;0+PzhJSktMTU5PRldYWVpbXF1eX1RlZmdoaWprbG1ub2R1dnd4eXp7fH1+f3OEhYaHiImKi4yNjo&#xA;+DlJWWl5iZmpucnZ6fkqOkpaanqKmqq6ytrq+v/aAAwDAQACEQMRAD8A7t+Zn5maZ5J0xHdBdard&#xA;A/UrKtK02MkhH2UX7ydh3IpzZhAebGUqfO1/5q/Mvz1eyAXFzcpXe1tiYbaMHoCAVT6XNffNdPLK&#xA;XMtNkqQ/KnzuRU2aAncgzRV/4llSfDLv+VUedv8AljT/AJHRf81Yr4Zd/wAqo87f8saf8jov+asV&#xA;8Mu/5VR52/5Y0/5HRf8ANWK+GXf8qo87f8saf8jov+asV8Mu/wCVUedv+WNP+R0X/NWK+GXf8qo8&#xA;7f8ALGn/ACOi/wCasV8Mu/5VR52/5Y0/5HRf81Yr4Zd/yqjzt/yxp/yOi/5qxXwy7/lVHnb/AJY0&#xA;/wCR0X/NWK+GXf8AKqPO3/LGn/I6L/mrFfDLv+VUedv+WNP+R0X/ADVivhl3/KqPO3/LGn/I6L/m&#xA;rFfDLv8AlVHnb/ljT/kdF/zVivhlpvKX5i+XP9NtYrm29P4jNZTVYeJIhbl+GSEiOSOEh6H+WX5/&#xA;Xou4NI83SLLBKwjh1YgI0ZOw9elFK/5fUd69RmYdUeUmccne9/67jM5tdirsVdirsVdirsVdirsV&#xA;dirsVdirsVdir5D81X9756/Mu4AkPC5uTbWp6iO2hJAIH+opc+9c1GWfFIlxzuXtOk6TYaVYRWNj&#xA;EIreIUAHUnuzHux7nKm8CkXil2KuxV2Kpdq/mPy9o3pfpjVLTTfX5eh9bnig58KcuHqMvLjyFaeO&#xA;SjEnkFTHIq7FXYq7FXYq7FXYq7FXYql3+I/L36X/AEL+lLT9Mf8AVt9eL6z9j1P7nl6n938XTpv0&#xA;yXCautleZ/m/5TtbRotdsoxEtxJ6V5GoAX1CCyyUH81Dy9/nkWrJHq9k/IvzLNrnkG2W5fnc6ZI1&#xA;jI5NWZYwrRE/883Vfoza6afFD3MoGw9By9m7FXYq7FXYq7FXYq7FXYq7FXYq7FXYq+PvypAPnezJ&#xA;3ISYgnx9Js0bRj5vatc1m00bS5tRuw7RRFEEcYDO8krrFFGgJUcnkdVFSBvuRkoxs03sUm/Mqex1&#xA;+6s9T0i5trJItP4H/R2lhnv5p4VS4Zbho6O0SBPT5UqSxA6WeFY2Perdn+atjqd3pMGlWEt19e1G&#xA;XTbwLNaObdorU3XPnFPLDIOFGPCQ7Bh9sBSnCRd9ys5ylXYq+ef+ctv+mU/7eH/YtmdouvwV9DZg&#xA;q7FXYq7FXYq7FXYq7FXYq+ef/Xuf8/8Aqy5nf5D8d6vVvzYVT5KuiRUrJCR7H1AP45gsMnJMP+cY&#xA;mb9Aa0tTxF3GQO1THv8AqzYaPkUY3tGZjY7FXYq7FXYq7FXYq7FXYq7FXYq7FXYq+Pvyo/5Taz/1&#xA;Jv8Ak02aNox83t+qaXYarYTWF/EJrScASR1ZT8JDKVZSrKysAVZTUHcYQSDYb0mu/wAvfKV7aXFp&#xA;fWb3kN2lvHdfWbm5meRbOR5YA8kkjO3B5W6ncbGooMmMshyVYfJvk3R7R7545IIrGYapLeyXd08q&#xA;SW9v6JkaZpWkKiBeDKW4ldiDjxyOyvJ7bzp+aX5qa1dweTrgeXfLFm3B79hSVq9OTgM3qMN+CEBR&#xA;1PQnJOOGMercqyPSvys/NPStTsrmP8wrm/tlnje/t7pZDWLkDKsfqyXKklQQtQMgc0CPpVin/OW3&#xA;/TKf9vD/ALFss0XX4K+gL28tbGznvbuQRWttG008rbBUQFmY/IDMIC1eD6f5t/NT819YvB5XvR5a&#xA;8r2T8DdgfvWJ+yCw+JpCNyqkKo6npXMMIYx6tyq7zL5f/On8u7E6/p3mubzLptoQ9/b3qu7CPuxS&#xA;V5iUH7RSQMOvTowljmaIpXqn5b+erLzr5Xg1m3QQz1MN7ag8vSnSnJa+BBDL7HMfLj4DSvMv+cYP&#xA;MfmHWf8AEv6Y1S71L0PqPofW55Z+HP6xy4eozceXEVp4Zfq4gVQV6x59ubi18jeYrm2leC5g0u9k&#xA;hmjYo6Olu7KystCrKRUEZjYx6h71YJ/zjZrWs6v5GvrnVr+41C5TVJY0mu5XncILeBgoaQseNWJp&#xA;75dqogS27lQf5tfmn5jg8y23kPyQobX7ootzdAK7RGQchGgYFVPD43c/ZX7xLDhFcUuSqcH5W/nV&#xA;Z2/6Qg/MCWbV6BzYTCWS0LKK8Q0jOtCdv7kY+NjO3DsrAvImsa1q/wDzkhZXut2ostXJmgvrZahV&#xA;lttMeBiKk7MY+XXvl2SIGKhy/ar3b81/+UJvP+MkP/J1c1zDJyR3/OMX/HC1v/mKj/5N5sNHyKMb&#xA;2nMxsdirsVdirsVdirsVdirsVdirsVdirsVfH35Uf8ptZ/6k3/Jps0bRj5vecW92KsD/AD0nuYfy&#xA;o8wPb/3hiiRv9SS4jST/AIRjl+n+sKl//OOcNlH+VWnPb09Waa6e8p19UTsgr7+kiYdV9ZV6ZmOr&#xA;55/5y2/6ZT/t4f8AYtmdouvwV6V+ek1zF+VHmBrcVkMUSN/qPcRrJ/whOUaf6wqA/wCcdIrRPyp0&#xA;xoKerJNdNdU6+oJ3UV/55qmHVfWVeh6jFaS6fdRXlPqckMi3PLp6bKQ9f9jlA5q8I/5xMa5Nj5lV&#xA;q/VRLaGLw9QrL6n4BMzNZzCqH/OJJFfNQrufqBA+X1nDrOivZfzG/wDJe+Z/+2Tff9Qz5i4vqHvV&#xA;55/ziv8A+S91D/trTf8AUNb5frPq+Csc/LDjcf8AOR3muS9p9YhOo/VK9arcpGlP+eJOTy/3Q+Cv&#xA;ofMFXzwqqv8AzlzRQFFSaDbc6NUn6Tmd/kPx3q9Y/Nf/AJQm8/4yQ/8AJ1cwWGTkjv8AnGL/AI4W&#xA;t/8AMVH/AMm82Gj5FGN7TmY2OxV2KuxV2KuxV2KuxV2KuxV2KuxV2Kvj78qP+U2s/wDUm/5NNmja&#xA;MfN7zi3uxVAa9o1nrei32kXgJtb+B4JadQHUjkPdeo98lGVG1fPXlrVfzA/JfULvStV0mbV/K08p&#xA;kiurcHgGNB6sb0YKWUDlG9PbxOdMRyiwaKs60z/nIbS9a1GwstE8uardfW5ooppniULEjuFkk/dG&#xA;csEWp7dO2UnTEDchWJ/85bf9Mp/28P8AsWyzRdfgr3jXNHsta0e90m9XlaX0LwTAdeLilR7jqMw4&#xA;yo2FfP3lnVfPP5LX17pWs6TPq3lW4lMsF7aglVb7PqI26qXUDlG5HTY+ObMRyiwaKpl5p/OHzD5+&#xA;0yXy75A8v35GpIYbnUbhVThE3wuoKM8act1LtJsO1ekYYBA3Iq9K/Kf8vo/I/lSPTHdZtRnc3Goz&#xA;J9kysAOKk78UUAD7++UZsnHK1eKer5m/JX8wtTvTpr33lrUi3CRQVRoWfnHSUBlWWKvEhuv0g5l7&#xA;ZYjfdWS6x+YHm380NEutI8uaLPpGhyRO+r61dfEDAi82hioApZ6U2Yk+w3yuOOOM2TZVNP8AnFdl&#xA;/wCVf6itRyGrSkjvQ21vT9WR1n1D3KlX5r+S/Nvlrz3F+ZHlC3a7qQ2o2katIyuE4OWjX4milT7V&#xA;Oh38MlhyRlHgkqNsv+ck5NUi+p6R5TvrvX2AVbNCHiVztVmVefEHxQfMYDpa5nZWI+UtK1/Tf+ci&#xA;dGfzJNHJrWoRz3t8I6BI5J7OfjCprQ8AAu3yFeuWTIOI1yV7Z+a//KE3n/GSH/k6ua9hk5I7/nGL&#xA;/jha3/zFR/8AJvNho+RRje05mNjsVdirsVdirsVdirsVdirsVdirsVdir4+/Kj/lNrP/AFJv+TTZ&#xA;o2jHze84t7sVdirsVQ0OpadNe3FjDdQyXtoEN1apIrSxCQVQyIDyXkNxUb4aPNUTgVDDUtOOoNpo&#xA;uoTqKxeu1kJF9YRFuPqGOvLhy25UpXDRq1ROBXYqhptS06G9t7Ga6hjvbsObW1eRVllEYq5jQnk3&#xA;Ebmg2w0eaonArsVdirsVdirsVYh+a/8AyhN5/wAZIf8Ak6uLDJyR3/OMX/HC1v8A5io/+TebDR8i&#xA;jG9pzMbHYq7FXYq7FXYq7FXYq7FXYq7FXYq7FXx9+VH/ACm1n/qTf8mmzRtGPm9h1nzh5V0UyLqm&#xA;q2tpJEI2lhklX1EWaRYkdowS4Qu4HIig6k0ycYSPIN6BvvzE8rWFgbu6u443Eoiaz9a3a4VTeCyM&#xA;pRZSPTWVviNfhHX4vhwjFIlUbd+cvKdrZfXZtXtPqxt5LxHSZJDJbxV5yxKhZpFFP2Ad9sAhI9FU&#xA;LL8wfI96XFvr1ixSVIDynjTlJKgkjVOZXnyVtitQdx1BoTjkOisX8nEj84/zHIUsRHpBCilT/ofQ&#xA;VoMsn/dx+Koi6/M3XdKktLrzH5Vn0jQryaO3Gom6gneFpjRDPbx7oPGjGnzwDEDyNlUi13WrnSvz&#xA;7L2enTape3Xltbe1s4CiVc3vOskjkLGirGSWPy6nJxjeLnW6sq8v/mJLd+YZvLnmHSZPL+tJAbuC&#xA;KWaO4gnt1NGeOdAq/D3FP1HK5YqFg2FSyT8271tPm8w2flq5uvJsDN6mtCeJJWiR+DzxWjfG8YNd&#xA;ywNN6ZLwd6v1Ko+abq3u/wA3Py0urZxLb3EOqywyr0ZHsgysPmDjAVCXwVvVvP8A5ytYte1G1g06&#xA;TTdD1eLSvq0izrPMJzAit6ocohRrpa/AaivTujHHYb7hURJ5+8w2st5o1zDZy67Fq9ppFvdRrLHa&#xA;EXtsLpZXjZ3kHCPkCvP4mpQiuDwwd+lWqV655r87XGo6bpMF3aWWpWHmGLTb+aKGZ7e5Waxa6gbh&#xA;6yMEC1EkRYnlxPKgoZRhGifJWUaD5o1q583X2i6uILH0vWOn2Zt50luIYmVRcxXLSNBIrBqtGq8k&#xA;2rlcoDhsKy/KldirEPzX/wCUJvP+MkP/ACdXFhk5I7/nGL/jha3/AMxUf/JvNho+RRje05mNjsVd&#xA;irsVdirsVdirsVdirsVdirsVdir4+/Kj/lNrP/Um/wCTTZo2jHzeja1+VHlnVdYutXkMkF9dvFM8&#xA;0Udo0iT2/p+nLHLNBLMhHor8Ifgd6qanLo5iBTe1b/lVoVsl5DBeXqWmoXaahe2vKApJcx3YvEcs&#xA;0JkWjKEorAceo5fFicxVqb8o/Kc17d3coleW9jvYZy4gc8L+SeSQRO8TSQ8Wu5OJiZainLlTHxpK&#xA;h9U/JvQNUtp7a81HUJILlvVnjJtSrTG3jtmm4m3KiRkgQ8lA4kfBxDMCRnI6KkunXWpWf5j/AJrX&#xA;WmW/1rUobLTZbG2oT6sqWLFFoNzVhTbJkAwhfmrznzvrNprP5azXUmva1q3mYi3k1XTyssNlZyeq&#xA;nqLJAkccKqjsFSpJ5UIy/HGp8gAr0LXPMFpoP56SarexTPpq+XY7e7u4I3mW39W7Z0klWMMwQmPj&#xA;Wm1RlEY8WOvNUNqrD8yvOMd55a9T9E6TpGpWo1po3hilutQgaBIozIFLiPlzrSg+6pH7uO/MkKxr&#xA;QE8rw+WY/L3mnzT5l0PUoYGs7/y/v6ZUAxsIES1m9SJwdqMdjlkuK7iInzVmWpaXa6V+ZH5VaZZP&#xA;JLaWFnqUEDzf3hijsVRC9FTeg3+EZSDcJn3Kz+byh5dmtL+0ltOVvqd2moXyepKPUuYzEySVDVWh&#xA;t4/hWg26bnKeM/JWrzyd5bvDqJubISNqssM96xeQM0tsixwyIQwMbIsa0MfHx64iZFeSqL+Q/Kr6&#xA;UmlmyItY7kXqss06z/WgKeubhXE5koaci9abdMPiSu1Q+reVIbS11fVtAgY+aJLS7/Rs80zzcLmZ&#xA;CyiJbl3hiDyheQACnvtjGd0DyVjbL+cdpq9zb8p9S0lSfqt0p0yKZ1WymZg1VVVd7qWJIz6RAEdW&#xA;FCeVn7sjz+KsWu/M/wCda32n6SjH/EEhMk+kQz6QzCyRZKvK5RmjuGopWT0/R3X4a1XLBDHV9Pj+&#xA;P0qzbzydWP5WRHWAF1Yw2f6QC8aC4qnq04VX7dem2Ysqvbkwyck9/wCcYv8Ajha3/wAxUf8AybzO&#xA;0fIoxvaczGx2KuxV2KuxV2KuxV2KuxV2KuxV2KuxV8fflR/ym1n/AKk3/Jps0bRj5vecW92KuxV2&#xA;KuxV2KuxV2KuxV2KqVrd2t3D61rNHcQ8nT1ImDryjYo61UkVV1KkdiKYSKVRv9W0zTzbi+uorY3c&#xA;yW1qJXVDLNIaJHGCfiZvAYgE8lReBXYq7FXYqxD81/8AlCbz/jJD/wAnVxYZOSO/5xi/44Wt/wDM&#xA;VH/ybzYaPkUY3tOZjY7FXYq7FXYq7FXYq7FXYq7FXYq7FXYq+Pvyo/5Taz/1Jv8Ak02aNox83sXm&#xA;vzPpvlfQbjXNTEhsbVolm9JQzgTSpCGoSuwaQE+3j0ycIGRoN6VWP5k6PcvqcM1lf2F3pdm2ovZ3&#xA;sAhmmtFr++hUsaiq0oxUg9QMkcR281RUvnrSYtJ8u6oYbgweZprW3sECpzRr2Fpo/WBeigKvxcS2&#xA;/jg8M2R3KhE/MvQX8qw+YlgujHPdrp8encE+ufW2n+r+iU58OYbf7f2d8PhHipVG+/NTQbWS7kSy&#xA;1C70rT5Gh1DWra39SzheM0k5NyEjiM/aaNGAwjCfK1Q7a9Ov5pXPp3E9zpKeV47+Ozty8qSP9bk/&#xA;eRQqaNI6AKCBU7DDw+jz4lTry/51sdY1O40l7K80vVLeJbk2WoRLFI9u7FBNHweRWXkKHeoPUZCW&#xA;MgXzCsH8zed9btPMPme1tde9HUNLntF0Hy76NuxvTLawSPD8UZnfk7ndGBStSeNALoYwQNufMqlX&#xA;mH80PM9tqPmBNNvj6UVnqj29vOLd7i0n0+VEVzCkCGNGDkqJpJCy0b4e8o4RQvyVOpPM3mzTtffT&#xA;LnW2utUtdRsrW00Z7aBDqFlc+mbi75JGGUR+pJRkIVPTo/ImuQ4IkXW1fJWLad548y6NYQabYc7U&#xA;xyX02no7WEUF7cvrF0skEsl7JE/FUQLxt/3gLVO1AbDjBNn9Pcqe/npp2tT655KltdWa0gm1myt7&#xA;a3EEUghujIxF2GccnKggem3w7ZDTkVLborKtfh8yaV5eslvPO9vpZgMo1HXLu0tleZnblCkcbMkC&#xA;cVqp+ElqDvlcaJ+m/JUk/LX8w7rUvNmqeWLrW7fzHb21oL+z1uCJLclA6xyxSpH+7qrOKEf7U8uK&#xA;og1Su8t6t+Y/nOxm816Rq8GmaS00y6Loz2qTLcxQO0fK5mYrKhkdCPgI4++MowgeEjdU6/JvzNrH&#xA;mbyHaaxq83r3s81wGcKiUVJmVFoiovwqKdMhngIyoKiPzX/5Qm8/4yQ/8nVylhk5I7/nGL/jha3/&#xA;AMxUf/JvNho+RRje05mNjsVdirsVdirsVdirsVdirsVdirsVdir4+/Kj/lNrP/Um/wCTTZo2jHze&#xA;nfmloeqa55Hv9M0uD6xfTSWjRQ8kSoiu4ZX+KQquyIT1y3DICVlvQWu+U9V1Pz5dXix8NLuvLN1p&#xA;JvCyfDcT3Csq8K8/sVavGnvhjMCPnxWrG7bQfzDutO8laLeaDHa23la/sXu70XcMnrR2cTQCWJAQ&#xA;wXg3Jg1GrsFOWGUAZG+apjbeQdbT8y3maMf4Nju31+EF1NdUlhEBT068xxblMDSlTkTkHB/S5fBU&#xA;Pb+XvPmj+VdS8kWGkQ3trdNeRWGuPcxpCkF9I7lriE/vjJH6zbIrA064TKJkJE/BV1/5I85afqcz&#xA;eXGCva+UrbRdO1KVkFbu3uGJHEsWVjFuGI41PXEZIkb/AM61b8keU/MVp+YI1680u6sbF9GkspJL&#xA;/Uv0jctc/WYpKuTJIFDKpoI/h23oTTHJMGNX17qV6LaaTp9peX17bxcLnUpElvZKsfUeOJYUNCSB&#xA;SONRRafflBJKovIq7FXYqwb81vLOu6xY6JfaHAl3qOg6rbamli8ixCdYCSYw7UVSTTqcuwzAsHqF&#xA;STzHo/ne+8zaD5x/wzHqItbOW2uPLM93b87ad5CRcRzNWBiycehrk4yiAY38VRHlzy750m/Na68z&#xA;69psFppt5ohskihmSYRP9ZRhBIfhZ3KIWLKnDeldsEpR4KB6qh/LelfmN5K0y58q6dp1teaNDJO+&#xA;k+YJbpIktYZnMn+kwMDI5jLlvg2bpUdcMjCZ4id+5UX/AM48Qyx/lRpRdSokkuXSvdfrDiv4YNT9&#xA;ZVOvzX/5Qm8/4yQ/8nVzHYZOSO/5xi/44Wt/8xUf/JvNho+RRje05mNjsVdirsVdirsVdirsVdir&#xA;sVdirsVdir4+/Kj/AJTaz/1Jv+TTZo2jHze84t7sVdirsVdirsVdirzr88PNnmDyz5b0u80O6+qX&#xA;NzqsFrNJ6ccnKF4pmZaSq4FSg3G+ZGngJE33K9FzHV2KuxV2KuxV2KsJ1T8qtP1K5u2n13W10++k&#xA;eS60lL4i0f1SWdOJUyKjE/ZVwMuGYjoFZdp2nWOm2MFhYwrb2dqixQQIKKqKKADKiSTZVjH5r/8A&#xA;KE3n/GSH/k6uBhk5I7/nGL/jha3/AMxUf/JvNho+RRje05mNjsVdirsVdirsVdirsVdirsVdirsV&#xA;dir4+/Kj/lNrP/Um/wCTTZo2jHzZdJqeraR+e0VhcX08ujeY9NZrOzkldoIrq2AL+lGTxQlIqmg3&#xA;5ZkUDjvqC3sd1zzzrsP5vR6hFeTL5T02/tfL15ah2Fu9xdxSM8roDxrFIQORHYZZHGOCv4uask8y&#xA;anqup/nJ5d8u6fez21jpdrLqusx28jxrKrMEhjmCkBxzVdm2o2VxAGMk9VSjQJ/NH5o6pq2oprt7&#xA;oPlCwuXsdOg0txBc3DR0LTPOQxANRsNt6diTKVYwBVyVX0/V/NPkf8xNL8q6xqs2ueXfMCONLvL2&#xA;jXcM8Y3R5QB6lTxG/wDMOm9UxjOBkBRCpVf3fnrWvzk80+UtI1q406waKynmug7P9Vt47aIyLaxk&#xA;8UkmlmWrLTuckBEYxIhUdqd35r1PzfZfljouuXNrbaRYJceYNfrzvpdl4qJGJKs3NDWtd69BQxAi&#xA;I8ZHPkFYx+dvlTX/AC9oujRnX73WtBm1SD93qjrPdQ3KxycCs4CFkdGeoI2oMs08xInajSvofMFX&#xA;Yq7FXYq8w13827/RNaubG7toWg06e/GpSKHDRwJbJcaeQOR+KcyhD4kGgHTMmOEEX+PNUTq35rTa&#xA;f5aup3snGr29vcxx3ToosJtSsYWkuoEVZmuAEaN/tAA8SAxwDDZ8v0K6L85dJtY9TGqxH1tP1S50&#xA;0NC0EMRaO4mWGMvdTxKJDBB6jksE8DVguPgHau5Wd6Tqlnq2l2eqWTF7S+hjuLdiKEpKoZajsaHc&#xA;ZTIUaVjf5r/8oTef8ZIf+Tq5Fhk5I7/nGL/jha3/AMxUf/JvNho+RRje05mNjsVdirsVdirsVdir&#xA;sVdirsVdirsVdir4+/LM/VPPlpDP8DgzwmvZ/TYU+8UzSFohzZb+eEbadY6B5yiQtJ5Y1OGecKKk&#xA;2s7COZf9keAy/T7kx7w3pJY+RrnUvyF1EXKn9N60JvMLsK8jdO31iKldwWjRV+nJnJWUdw2VMPyP&#xA;luPMN3r/AJ9vEIn1eS3s7bl1WK0gVZOIG1GkP3rkdR6aj3Kk/knXo/ylutW8sea4J7XQXvHu9G1x&#xA;IZJbd45AB6bmJWYNRV2od69qZPJHxaMeao2OS7/Mn8zND1uwtJ4PKPlcSTQ6hcxtD9auZOJpCrgM&#xA;VqidR2PiMH93Ag/UVV/Kn/rRvnX/ALZ9p/yZtcE/7qPvVR8zyXXkP82p/O1zaTXPlnXbNLXUrq3Q&#xA;ytbTRBFVnUbheMK/Op7jGHrhw9QrHvzp89WPm7QNLHl63uLvRLPUre4u9ZeGSCD1SGijij9VUZyf&#xA;VYt8O1B45ZgxmJN86V75eR3EtpPHbS+hcPG6wz0DcHKkK9GBB4nfcZhBXiyfm/5mVYrxmDWsektY&#xA;TxemnxeYxA89OQXb+7C8K0+Lp0zL8Afb9is00zz5qsKWq31iLnT47+PQbrWfWVZ5L9XFq8v1RYlQ&#xA;RNc1WocHvwplRxjp71QGg/mH5v1vV/KrppFpY6Tr1tdXJie8aWYxQehV/htwqlfVPFK/H+0Uphli&#xA;iAd9wrL9Q8leV9RuL24vdPSabUfqpvXZnHqfUX9S36MKcG8PtDZqjKhkkFULz8vfKN5LdyXNiZPr&#xA;wmFxEZ5xFW5XjO8cQkEcckg+06KGPjvhGWQVbL+XXk+S5e6+pPFdPJJM1zBc3MEvqyyyTO4eKRGD&#xA;c55KEH4VdlFFYjHxZKyGGJYYY4ULFI1CKXZpGIUUHJ3LMx8STU5BWHfm7cRxeTZY2NGnmijQeJDc&#xA;/wBSHAwyck3/AOcY4HHlrV5z9iS9VFPukSk/8TGbDRj0lGPk9lzMbHYq7FXYq7FXYq7FXYq7FXYq&#xA;7FXYq7FXyv8AnJ5Sv/Kfnh9XswUstRmN7Yzr0Sblzkj9ir7geBGavUY+GV9C0TFFmvlP8xNE1y2j&#xA;SaZLPUgAJbaRgoZvGMnZgfDqMx22MwWVggio3B6HFk7FXYq7FXYq7FXYq7FWP/4B8oej6P6NT0v0&#xA;n+m+POSn6Qry9f7X/C/ZptSmWeJLv6Uqp/gryz+mP0v9TP1z1vrVPVm9D6xTj6/1bn6Hq0/3Zw5e&#xA;+DxDVKut/Jvly2j0hLe1aFdCUx6WY5pkMSMFDIWDgyI3BeSycgab4mZ381TrIK7FXYqg9S1jS9Mh&#xA;M2oXUdtGBWsjAE/6q9W+jFBNPFfPPm2483avb2OmxSNaRuI7KAKTJNLIQvLiK7noo/rhAtplK30v&#xA;+WvlE+VPJ9jpMlDdgGa9ZdwZ5d3AI6hdlB8Bm2ww4Y02xFBk+WsnYq7FXYq7FXYq7FXYq7FXYq7F&#xA;XYq7FUu1/wAv6R5g0uXTNWt1ubObqjbFWHRkYbqw7EZGURIUUEW8I8yf84063DO8nl6/iu7UklIL&#xA;smKZR2HJQyP8/h+WYU9Iehajj7mNf8qD/M3/AKt0X/STB/zVlX5afcjwy7/lQf5m/wDVui/6SYP+&#xA;asfy0+5fDLv+VB/mb/1bov8ApJg/5qx/LT7l8Mu/5UH+Zv8A1bov+kmD/mrH8tPuXwy7/lQf5m/9&#xA;W6L/AKSYP+asfy0+5fDLv+VB/mb/ANW6L/pJg/5qx/LT7l8Mu/5UH+Zv/Vui/wCkmD/mrH8tPuXw&#xA;y7/lQf5m/wDVui/6SYP+asfy0+5fDLv+VB/mb/1bov8ApJg/5qx/LT7l8Mu/5UH+Zv8A1bov+kmD&#xA;/mrH8tPuXwy7/lQf5m/9W6L/AKSYP+asfy0+5fDLv+VB/mb/ANW6L/pJg/5qx/LT7l8Mu/5UH+Zv&#xA;/Vui/wCkmD/mrH8tPuXwy7/lQf5m/wDVui/6SYP+asfy0+5fDKK0/wD5x3/MS5mCXCWtjH+1JLOH&#xA;FPYRCQ4RpZr4Zex/l3+Tfl/yg630jnUtZpQXkihVjqKEQx1bjttyJJ+XTMzFpxDfmWyMKegZezdi&#xA;rsVdirsVdirsVdirsVdirsVdirsVdir/AP/Z</xmpGImg:image>
               </rdf:li>
            </rdf:Alt>
         </xmp:Thumbnails>
      </rdf:Description>
      <rdf:Description rdf:about=""
            xmlns:xmpMM="http://ns.adobe.com/xap/1.0/mm/"
            xmlns:stRef="http://ns.adobe.com/xap/1.0/sType/ResourceRef#"
            xmlns:stEvt="http://ns.adobe.com/xap/1.0/sType/ResourceEvent#">
         <xmpMM:DocumentID>xmp.did:04801174072068118083EB2C02C036B9</xmpMM:DocumentID>
         <xmpMM:InstanceID>xmp.iid:04801174072068118083EB2C02C036B9</xmpMM:InstanceID>
         <xmpMM:OriginalDocumentID>uuid:6fa6c250-cc3c-11db-a073-000d932a3d9a</xmpMM:OriginalDocumentID>
         <xmpMM:DerivedFrom rdf:parseType="Resource">
            <stRef:instanceID>xmp.iid:03801174072068118083EB2C02C036B9</stRef:instanceID>
            <stRef:documentID>xmp.did:03801174072068118083EB2C02C036B9</stRef:documentID>
            <stRef:originalDocumentID>uuid:6fa6c250-cc3c-11db-a073-000d932a3d9a</stRef:originalDocumentID>
         </xmpMM:DerivedFrom>
         <xmpMM:History>
            <rdf:Seq>
               <rdf:li rdf:parseType="Resource">
                  <stEvt:action>saved</stEvt:action>
                  <stEvt:instanceID>xmp.iid:01801174072068118083EB2C02C036B9</stEvt:instanceID>
                  <stEvt:when>2012-09-24T02:22:14+02:00</stEvt:when>
                  <stEvt:softwareAgent>Adobe Illustrator CS6 (Macintosh)</stEvt:softwareAgent>
                  <stEvt:changed>/</stEvt:changed>
               </rdf:li>
               <rdf:li rdf:parseType="Resource">
                  <stEvt:action>saved</stEvt:action>
                  <stEvt:instanceID>xmp.iid:04801174072068118083EB2C02C036B9</stEvt:instanceID>
                  <stEvt:when>2012-09-24T02:42:02+02:00</stEvt:when>
                  <stEvt:softwareAgent>Adobe Illustrator CS6 (Macintosh)</stEvt:softwareAgent>
                  <stEvt:changed>/</stEvt:changed>
               </rdf:li>
            </rdf:Seq>
         </xmpMM:History>
      </rdf:Description>
      <rdf:Description rdf:about=""
            xmlns:dc="http://purl.org/dc/elements/1.1/">
         <dc:format>image/svg+xml</dc:format>
      </rdf:Description>
      <rdf:Description rdf:about=""
            xmlns:xmpTPg="http://ns.adobe.com/xap/1.0/t/pg/"
            xmlns:stDim="http://ns.adobe.com/xap/1.0/sType/Dimensions#"
            xmlns:stFnt="http://ns.adobe.com/xap/1.0/sType/Font#"
            xmlns:xmpG="http://ns.adobe.com/xap/1.0/g/">
         <xmpTPg:MaxPageSize rdf:parseType="Resource">
            <stDim:w>127.228516</stDim:w>
            <stDim:h>115.445312</stDim:h>
            <stDim:unit>Points</stDim:unit>
         </xmpTPg:MaxPageSize>
         <xmpTPg:NPages>1</xmpTPg:NPages>
         <xmpTPg:HasVisibleTransparency>False</xmpTPg:HasVisibleTransparency>
         <xmpTPg:HasVisibleOverprint>False</xmpTPg:HasVisibleOverprint>
         <xmpTPg:Fonts>
            <rdf:Bag>
               <rdf:li rdf:parseType="Resource">
                  <stFnt:fontName>MyriadPro-Regular</stFnt:fontName>
                  <stFnt:fontFamily>Myriad Pro</stFnt:fontFamily>
                  <stFnt:fontFace>Regular</stFnt:fontFace>
                  <stFnt:fontType>Open Type</stFnt:fontType>
                  <stFnt:versionString>Version 2.102;PS 2.000;hotconv 1.0.67;makeotf.lib2.5.33168</stFnt:versionString>
                  <stFnt:composite>False</stFnt:composite>
                  <stFnt:fontFileName>MyriadPro-Regular.otf</stFnt:fontFileName>
               </rdf:li>
            </rdf:Bag>
         </xmpTPg:Fonts>
         <xmpTPg:PlateNames>
            <rdf:Seq>
               <rdf:li>Cyan</rdf:li>
               <rdf:li>Magenta</rdf:li>
               <rdf:li>Yellow</rdf:li>
               <rdf:li>Black</rdf:li>
            </rdf:Seq>
         </xmpTPg:PlateNames>
         <xmpTPg:SwatchGroups>
            <rdf:Seq>
               <rdf:li rdf:parseType="Resource">
                  <xmpG:groupName>Default Swatch Group</xmpG:groupName>
                  <xmpG:groupType>0</xmpG:groupType>
               </rdf:li>
            </rdf:Seq>
         </xmpTPg:SwatchGroups>
      </rdf:Description>
   </rdf:RDF>
</x:xmpmeta>
                                                                                                    
                                                                                                    
                                                                                                    
                                                                                                    
                                                                                                    
                                                                                                    
                                                                                                    
                                                                                                    
                                                                                                    
                                                                                                    
                                                                                                    
                                                                                                    
                                                                                                    
                                                                                                    
                                                                                                    
                                                                                                    
                                                                                                    
                                                                                                    
                                                                                                    
                                                                                                    
                           
<?xpacket end="w"?>
	</metadata>
<g id="Layer_4">
	<path fill="#CAD199" stroke="#405915" stroke-width="5" d="M124.729,99.735c0,7.294-5.914,13.21-13.207,13.21H15.709
		c-7.294,0-13.209-5.916-13.209-13.21V15.709C2.5,8.413,8.415,2.5,15.709,2.5h95.812c7.293,0,13.207,5.913,13.207,13.209
		L124.729,99.735L124.729,99.735z"/>
</g>
<title>Area di disegno 1</title>
<path fill="none" stroke="#732B1B" stroke-width="5" stroke-linecap="round" stroke-linejoin="round" d="M220.921,16.914"/>
<path fill="none" stroke="#732B1B" stroke-width="5" stroke-linecap="round" stroke-linejoin="round" d="M129.531,102.53"/>
<title>Area di disegno 1</title>
<title>Livello 1</title>
<g>
	<path d="M10.098,91.388l1.664,6.396c0.364,1.404,0.702,2.704,0.936,4.005h0.078c0.286-1.274,0.702-2.627,1.118-3.979l2.054-6.422
		h1.924l1.95,6.292c0.468,1.508,0.832,2.834,1.118,4.108h0.078c0.208-1.274,0.546-2.601,0.962-4.082l1.794-6.318h2.262
		l-4.056,12.584H19.9l-1.924-6.006c-0.442-1.404-0.806-2.652-1.118-4.135h-0.052c-0.312,1.508-0.702,2.809-1.144,4.16l-2.028,5.98
		h-2.08L7.758,91.388H10.098z"/>
	<path d="M39.712,97.576c0,4.654-3.224,6.683-6.267,6.683c-3.406,0-6.032-2.496-6.032-6.475c0-4.212,2.756-6.683,6.24-6.683
		C37.268,91.101,39.712,93.728,39.712,97.576z M29.728,97.707c0,2.756,1.586,4.836,3.822,4.836c2.184,0,3.822-2.055,3.822-4.889
		c0-2.132-1.066-4.836-3.77-4.836S29.728,95.314,29.728,97.707z"/>
	<path d="M42.597,95.314c0-1.482-0.026-2.756-0.104-3.926h2.002l0.078,2.47h0.104c0.572-1.69,1.95-2.757,3.484-2.757
		c0.26,0,0.442,0.026,0.65,0.078v2.158c-0.234-0.052-0.468-0.078-0.78-0.078c-1.612,0-2.756,1.223-3.068,2.938
		c-0.052,0.312-0.104,0.677-0.104,1.066v6.708h-2.262V95.314z"/>
	<path d="M61.968,85.511v15.211c0,1.118,0.026,2.393,0.104,3.25h-2.054l-0.104-2.184h-0.052c-0.702,1.403-2.236,2.47-4.29,2.47
		c-3.042,0-5.382-2.574-5.382-6.396c-0.026-4.187,2.574-6.761,5.642-6.761c1.924,0,3.224,0.91,3.796,1.925h0.052v-7.515H61.968z
		 M59.68,96.51c0-0.285-0.026-0.676-0.104-0.961c-0.338-1.457-1.586-2.652-3.302-2.652c-2.366,0-3.77,2.08-3.77,4.861
		c0,2.549,1.248,4.654,3.718,4.654c1.534,0,2.938-1.014,3.354-2.729c0.078-0.312,0.104-0.624,0.104-0.988V96.51z"/>
</g>
<g>
	<path d="M40.998,40.419c-0.92,0.48-2.959,1.12-5.559,1.12c-5.839,0-9.639-3.959-9.639-9.878c0-5.959,4.08-10.278,10.398-10.278
		c2.08,0,3.919,0.52,4.879,1l-0.8,2.72c-0.84-0.48-2.159-0.92-4.079-0.92c-4.439,0-6.839,3.279-6.839,7.319
		c0,4.479,2.879,7.239,6.719,7.239c2,0,3.32-0.52,4.319-0.96L40.998,40.419z"/>
	<path d="M45.12,12.744h3.52v28.395h-3.52V12.744z"/>
	<path d="M72.077,31.301c0,7.159-4.959,10.278-9.639,10.278c-5.239,0-9.278-3.839-9.278-9.958c0-6.479,4.239-10.278,9.599-10.278
		C68.318,21.342,72.077,25.382,72.077,31.301z M56.719,31.501c0,4.239,2.439,7.438,5.879,7.438c3.36,0,5.879-3.159,5.879-7.519
		c0-3.28-1.641-7.439-5.799-7.439C58.519,23.982,56.719,27.821,56.719,31.501z"/>
	<path d="M92.718,35.86c0,2,0.039,3.76,0.158,5.279h-3.119l-0.199-3.16h-0.08c-0.92,1.56-2.959,3.6-6.398,3.6
		c-3.041,0-6.68-1.68-6.68-8.479V21.782h3.52V32.5c0,3.68,1.119,6.159,4.32,6.159c2.359,0,3.998-1.64,4.639-3.2
		c0.199-0.52,0.32-1.16,0.32-1.799V21.782h3.52V35.86z"/>
	<path d="M115.277,12.744V36.14c0,1.72,0.041,3.679,0.16,4.999h-3.16l-0.158-3.359h-0.08c-1.08,2.16-3.439,3.799-6.6,3.799
		c-4.68,0-8.279-3.959-8.279-9.838c-0.039-6.439,3.961-10.398,8.68-10.398c2.959,0,4.959,1.4,5.838,2.959h0.08V12.744H115.277z
		 M111.757,29.661c0-0.44-0.039-1.04-0.16-1.48c-0.52-2.239-2.439-4.079-5.078-4.079c-3.639,0-5.799,3.199-5.799,7.479
		c0,3.919,1.92,7.159,5.719,7.159c2.359,0,4.52-1.56,5.158-4.2c0.121-0.479,0.16-0.959,0.16-1.52V29.661z"/>
</g>
<g>
	<path d="M88.872,67.892v2.918h2.646v1.406h-2.646v5.48c0,1.26,0.357,1.974,1.387,1.974c0.482,0,0.84-0.063,1.07-0.126l0.084,1.386
		c-0.357,0.147-0.924,0.252-1.638,0.252c-0.86,0-1.554-0.272-1.995-0.776c-0.524-0.547-0.713-1.449-0.713-2.646v-5.543h-1.575V70.81
		h1.575v-2.436L88.872,67.892z"/>
	<path d="M99.225,80.972l-0.147-1.281h-0.062c-0.566,0.799-1.658,1.512-3.107,1.512c-2.058,0-3.107-1.448-3.107-2.918
		c0-2.457,2.184-3.801,6.109-3.779v-0.21c0-0.84-0.23-2.352-2.309-2.352c-0.945,0-1.932,0.294-2.646,0.756l-0.42-1.218
		c0.84-0.546,2.059-0.902,3.339-0.902c3.107,0,3.863,2.12,3.863,4.156v3.801c0,0.882,0.042,1.742,0.168,2.436H99.225z
		 M98.952,75.787c-2.016-0.043-4.305,0.314-4.305,2.288c0,1.196,0.798,1.764,1.742,1.764c1.323,0,2.163-0.84,2.457-1.7
		c0.062-0.189,0.105-0.399,0.105-0.588V75.787z"/>
	<path d="M112.476,70.81c-0.043,0.734-0.084,1.554-0.084,2.793v5.899c0,2.331-0.463,3.759-1.449,4.64
		c-0.986,0.924-2.414,1.219-3.695,1.219c-1.218,0-2.562-0.295-3.381-0.84l0.463-1.407c0.672,0.42,1.721,0.798,2.98,0.798
		c1.891,0,3.275-0.986,3.275-3.549V79.23h-0.041c-0.567,0.944-1.659,1.7-3.234,1.7c-2.52,0-4.324-2.142-4.324-4.955
		c0-3.443,2.246-5.396,4.576-5.396c1.764,0,2.73,0.924,3.171,1.764h0.042l0.084-1.533H112.476z M110.565,74.82
		c0-0.314-0.021-0.588-0.104-0.84c-0.336-1.07-1.239-1.952-2.583-1.952c-1.764,0-3.023,1.491-3.023,3.843
		c0,1.994,1.008,3.652,3.003,3.652c1.133,0,2.162-0.713,2.561-1.889c0.105-0.315,0.147-0.672,0.147-0.987V74.82z"/>
</g>
<g>
	<path d="M11.959,76.177c0-0.75-0.015-1.365-0.06-1.965h1.17l0.075,1.2h0.03c0.36-0.69,1.2-1.365,2.4-1.365
		c1.005,0,2.565,0.6,2.565,3.09v4.335h-1.32v-4.185c0-1.17-0.435-2.146-1.68-2.146c-0.87,0-1.545,0.615-1.77,1.351
		c-0.06,0.165-0.09,0.39-0.09,0.614v4.365h-1.32V76.177z"/>
	<path d="M26.359,79.493c0,0.75,0.015,1.409,0.06,1.979h-1.17l-0.075-1.185h-0.03c-0.345,0.585-1.11,1.35-2.4,1.35
		c-1.14,0-2.505-0.63-2.505-3.18v-4.245h1.32v4.02c0,1.38,0.42,2.311,1.62,2.311c0.885,0,1.5-0.615,1.74-1.2
		c0.075-0.195,0.12-0.435,0.12-0.675v-4.455h1.32V79.493z"/>
	<path d="M29.059,74.213l1.425,4.08c0.24,0.66,0.435,1.26,0.585,1.859h0.045c0.165-0.6,0.375-1.199,0.615-1.859l1.41-4.08h1.38
		l-2.85,7.26h-1.26l-2.76-7.26H29.059z"/>
	<path d="M42.334,77.783c0,2.685-1.86,3.854-3.615,3.854c-1.965,0-3.479-1.44-3.479-3.735c0-2.43,1.59-3.854,3.6-3.854
		C40.924,74.048,42.334,75.562,42.334,77.783z M36.574,77.857c0,1.59,0.915,2.79,2.204,2.79c1.261,0,2.205-1.185,2.205-2.819
		c0-1.23-0.614-2.79-2.175-2.79C37.249,75.038,36.574,76.477,36.574,77.857z"/>
	<path d="M43.999,70.823h1.32v10.649h-1.32V70.823z"/>
	<path d="M51.559,81.472l-0.105-0.915h-0.045c-0.405,0.57-1.185,1.08-2.22,1.08c-1.47,0-2.22-1.035-2.22-2.085
		c0-1.755,1.56-2.715,4.364-2.7v-0.149c0-0.601-0.165-1.681-1.649-1.681c-0.676,0-1.38,0.21-1.891,0.54l-0.3-0.869
		c0.601-0.391,1.47-0.646,2.385-0.646c2.22,0,2.76,1.515,2.76,2.97v2.715c0,0.63,0.03,1.245,0.12,1.74H51.559z M51.364,77.767
		c-1.44-0.029-3.075,0.226-3.075,1.635c0,0.855,0.57,1.261,1.245,1.261c0.945,0,1.545-0.601,1.755-1.216
		c0.045-0.135,0.075-0.284,0.075-0.42V77.767z"/>
</g>
<g>
	<path d="M57.344,72.465c0-0.62-0.02-1.12-0.04-1.579h0.79l0.04,0.829h0.02c0.36-0.59,0.93-0.939,1.719-0.939
		c1.17,0,2.049,0.989,2.049,2.459c0,1.738-1.059,2.599-2.198,2.599c-0.64,0-1.199-0.28-1.489-0.76h-0.02v2.628h-0.87V72.465z
		 M58.214,73.754c0,0.13,0.02,0.25,0.04,0.359c0.16,0.61,0.69,1.029,1.319,1.029c0.93,0,1.47-0.759,1.47-1.868
		c0-0.97-0.51-1.8-1.439-1.8c-0.6,0-1.159,0.43-1.329,1.09c-0.03,0.11-0.06,0.24-0.06,0.359V73.754z"/>
	<path d="M65.712,75.722l-0.07-0.609h-0.029c-0.271,0.38-0.79,0.72-1.479,0.72c-0.979,0-1.479-0.69-1.479-1.39
		c0-1.169,1.04-1.809,2.908-1.799v-0.101c0-0.399-0.109-1.119-1.099-1.119c-0.45,0-0.92,0.14-1.26,0.36l-0.2-0.58
		c0.4-0.26,0.979-0.43,1.59-0.43c1.479,0,1.839,1.01,1.839,1.979v1.81c0,0.42,0.02,0.829,0.08,1.159H65.712z M65.582,73.254
		c-0.96-0.02-2.049,0.15-2.049,1.09c0,0.569,0.38,0.839,0.829,0.839c0.63,0,1.029-0.399,1.17-0.81c0.029-0.09,0.05-0.189,0.05-0.279
		V73.254z"/>
	<path d="M67.854,72.394c0-0.569-0.01-1.06-0.04-1.509h0.77l0.03,0.949h0.04c0.22-0.649,0.749-1.06,1.339-1.06
		c0.101,0,0.17,0.01,0.25,0.03v0.829c-0.09-0.02-0.18-0.03-0.3-0.03c-0.619,0-1.06,0.47-1.18,1.13c-0.02,0.12-0.039,0.26-0.039,0.41
		v2.578h-0.87V72.394z"/>
	<path d="M75.501,73.263c0,1.789-1.239,2.569-2.409,2.569c-1.309,0-2.318-0.96-2.318-2.489c0-1.619,1.06-2.568,2.398-2.568
		C74.562,70.775,75.501,71.785,75.501,73.263z M71.663,73.314c0,1.059,0.609,1.858,1.469,1.858c0.84,0,1.47-0.789,1.47-1.879
		c0-0.819-0.41-1.859-1.449-1.859C72.113,71.434,71.663,72.394,71.663,73.314z"/>
	<path d="M76.614,68.627h0.88v7.096h-0.88V68.627z"/>
	<path d="M79.464,73.464c0.02,1.189,0.779,1.679,1.658,1.679c0.63,0,1.01-0.109,1.34-0.249l0.149,0.629
		c-0.31,0.141-0.839,0.3-1.608,0.3c-1.489,0-2.379-0.979-2.379-2.438s0.859-2.608,2.269-2.608c1.579,0,1.999,1.39,1.999,2.278
		c0,0.181-0.02,0.32-0.03,0.41H79.464z M82.042,72.834c0.01-0.56-0.229-1.429-1.22-1.429c-0.889,0-1.279,0.819-1.349,1.429H82.042z"
		/>
</g>
<g>
	<path d="M77.49,52.739c0-0.6-0.013-1.091-0.049-1.571h0.924l0.048,0.936h0.036c0.324-0.552,0.863-1.067,1.823-1.067
		c0.791,0,1.391,0.479,1.643,1.163h0.024c0.18-0.324,0.407-0.576,0.647-0.755c0.348-0.264,0.731-0.408,1.283-0.408
		c0.768,0,1.907,0.503,1.907,2.519v3.418h-1.031v-3.286c0-1.115-0.408-1.787-1.26-1.787c-0.6,0-1.067,0.444-1.247,0.959
		c-0.048,0.144-0.084,0.336-0.084,0.528v3.586h-1.031v-3.478c0-0.923-0.408-1.595-1.212-1.595c-0.659,0-1.139,0.528-1.307,1.056
		c-0.061,0.156-0.084,0.335-0.084,0.516v3.502H77.49V52.739z"/>
	<path d="M92.751,54.022c0,2.146-1.487,3.082-2.891,3.082c-1.571,0-2.782-1.151-2.782-2.986c0-1.943,1.271-3.082,2.878-3.082
		C91.623,51.036,92.751,52.247,92.751,54.022z M88.146,54.082c0,1.271,0.731,2.231,1.763,2.231c1.008,0,1.763-0.947,1.763-2.255
		c0-0.983-0.491-2.23-1.738-2.23C88.685,51.827,88.146,52.979,88.146,54.082z"/>
	<path d="M95.357,49.501v1.667h1.512v0.803h-1.512v3.13c0,0.72,0.204,1.127,0.792,1.127c0.275,0,0.479-0.036,0.611-0.072
		l0.048,0.792c-0.203,0.084-0.527,0.144-0.936,0.144c-0.491,0-0.887-0.156-1.139-0.444c-0.3-0.312-0.408-0.828-0.408-1.511v-3.167
		h-0.899v-0.803h0.899v-1.392L95.357,49.501z"/>
	<path d="M97.914,55.893c0.312,0.204,0.863,0.42,1.392,0.42c0.768,0,1.127-0.384,1.127-0.863c0-0.504-0.3-0.78-1.079-1.068
		c-1.044-0.372-1.535-0.947-1.535-1.643c0-0.935,0.756-1.703,2.003-1.703c0.588,0,1.104,0.167,1.427,0.359l-0.264,0.768
		c-0.228-0.144-0.647-0.335-1.188-0.335c-0.623,0-0.971,0.36-0.971,0.792c0,0.479,0.348,0.695,1.103,0.983
		c1.008,0.384,1.523,0.888,1.523,1.751c0,1.02-0.791,1.739-2.171,1.739c-0.636,0-1.223-0.156-1.631-0.396L97.914,55.893z"/>
</g>
<g>
	<path d="M103.052,58.355c0-0.299-0.006-0.545-0.023-0.785h0.468l0.029,0.479h0.013c0.144-0.276,0.479-0.545,0.959-0.545
		c0.402,0,1.025,0.24,1.025,1.236v1.732h-0.527V58.8c0-0.468-0.174-0.858-0.672-0.858c-0.348,0-0.617,0.246-0.708,0.541
		c-0.023,0.065-0.035,0.155-0.035,0.245v1.745h-0.528V58.355z"/>
	<path d="M108.811,59.681c0,0.299,0.006,0.562,0.024,0.791h-0.468l-0.03-0.474h-0.012c-0.138,0.233-0.444,0.54-0.96,0.54
		c-0.455,0-1.001-0.252-1.001-1.271V57.57h0.527v1.607c0,0.551,0.168,0.924,0.647,0.924c0.354,0,0.6-0.246,0.696-0.48
		c0.029-0.078,0.048-0.174,0.048-0.27V57.57h0.527V59.681z"/>
	<path d="M111.295,60.472l-0.042-0.365h-0.018c-0.162,0.228-0.475,0.432-0.888,0.432c-0.588,0-0.888-0.414-0.888-0.834
		c0-0.701,0.624-1.086,1.745-1.08v-0.059c0-0.24-0.066-0.672-0.66-0.672c-0.27,0-0.552,0.084-0.755,0.216l-0.12-0.348
		c0.239-0.156,0.588-0.258,0.953-0.258c0.888,0,1.104,0.605,1.104,1.187v1.086c0,0.252,0.012,0.498,0.048,0.695H111.295z
		 M111.217,58.992c-0.575-0.013-1.229,0.09-1.229,0.652c0,0.342,0.229,0.504,0.498,0.504c0.378,0,0.617-0.239,0.701-0.485
		c0.019-0.054,0.03-0.114,0.03-0.168V58.992z"/>
	<path d="M115.081,57.57c-0.012,0.21-0.024,0.444-0.024,0.797v1.686c0,0.666-0.132,1.074-0.413,1.325
		c-0.282,0.265-0.69,0.349-1.056,0.349c-0.348,0-0.731-0.084-0.966-0.24l0.132-0.402c0.192,0.12,0.492,0.229,0.852,0.229
		c0.54,0,0.936-0.282,0.936-1.014v-0.324h-0.012c-0.162,0.27-0.474,0.486-0.924,0.486c-0.72,0-1.235-0.611-1.235-1.416
		c0-0.983,0.642-1.541,1.308-1.541c0.504,0,0.779,0.264,0.905,0.503h0.013l0.023-0.438H115.081z M114.535,58.716
		c0-0.091-0.006-0.168-0.03-0.24c-0.096-0.306-0.354-0.558-0.737-0.558c-0.504,0-0.863,0.426-0.863,1.098
		c0,0.569,0.288,1.043,0.857,1.043c0.324,0,0.617-0.203,0.731-0.539c0.03-0.09,0.042-0.192,0.042-0.282V58.716z"/>
	<path d="M116.228,59.117c0.012,0.714,0.468,1.008,0.996,1.008c0.377,0,0.605-0.066,0.803-0.15l0.09,0.378
		c-0.186,0.084-0.503,0.181-0.965,0.181c-0.894,0-1.428-0.588-1.428-1.464c0-0.875,0.516-1.565,1.361-1.565
		c0.947,0,1.199,0.833,1.199,1.367c0,0.108-0.012,0.192-0.018,0.246H116.228z M117.775,58.74c0.007-0.336-0.138-0.858-0.731-0.858
		c-0.533,0-0.768,0.492-0.81,0.858H117.775z"/>
</g>
<g>
	<path d="M70.474,105.472l-1.709-6.736h0.919l0.8,3.408c0.199,0.84,0.379,1.679,0.5,2.329h0.02c0.109-0.67,0.32-1.47,0.55-2.339
		l0.899-3.398h0.91l0.818,3.418c0.19,0.8,0.37,1.6,0.471,2.309h0.02c0.141-0.739,0.33-1.489,0.539-2.328l0.891-3.398h0.889
		l-1.908,6.736h-0.91l-0.85-3.508c-0.209-0.859-0.35-1.52-0.439-2.199h-0.02c-0.12,0.67-0.27,1.329-0.52,2.199l-0.96,3.508H70.474z"
		/>
	<path d="M82.182,103.013c0,1.789-1.239,2.569-2.409,2.569c-1.309,0-2.318-0.96-2.318-2.489c0-1.619,1.06-2.568,2.398-2.568
		C81.241,100.525,82.182,101.535,82.182,103.013z M78.344,103.064c0,1.059,0.609,1.858,1.469,1.858c0.84,0,1.47-0.789,1.47-1.879
		c0-0.819-0.41-1.859-1.449-1.859S78.344,102.144,78.344,103.064z"/>
	<path d="M83.294,102.144c0-0.569-0.01-1.06-0.041-1.509h0.77l0.031,0.949h0.039c0.221-0.649,0.75-1.06,1.34-1.06
		c0.1,0,0.17,0.01,0.25,0.03v0.829c-0.09-0.02-0.18-0.03-0.301-0.03c-0.619,0-1.059,0.47-1.179,1.13
		c-0.021,0.12-0.04,0.26-0.04,0.41v2.578h-0.869V102.144z"/>
	<path d="M87.623,99.246v1.39h1.259v0.669h-1.259v2.608c0,0.601,0.17,0.939,0.659,0.939c0.23,0,0.4-0.029,0.51-0.06l0.041,0.66
		c-0.17,0.069-0.44,0.119-0.78,0.119c-0.409,0-0.739-0.13-0.949-0.369c-0.25-0.26-0.34-0.689-0.34-1.26v-2.639h-0.75v-0.669h0.75
		v-1.16L87.623,99.246z"/>
</g>
<g>
	<path d="M92.602,97.972l-1.367-5.389h0.735l0.64,2.727c0.16,0.671,0.304,1.343,0.399,1.862h0.017
		c0.088-0.535,0.256-1.175,0.439-1.871l0.72-2.718h0.728l0.655,2.734c0.152,0.64,0.296,1.279,0.376,1.847h0.017
		c0.111-0.592,0.264-1.191,0.432-1.863l0.711-2.718h0.712l-1.527,5.389H95.56l-0.68-2.807c-0.168-0.688-0.279-1.215-0.352-1.759
		h-0.016c-0.097,0.536-0.216,1.063-0.416,1.759l-0.768,2.807H92.602z"/>
	<path d="M101.968,96.006c0,1.431-0.991,2.055-1.927,2.055c-1.048,0-1.855-0.768-1.855-1.991c0-1.295,0.848-2.055,1.919-2.055
		C101.216,94.014,101.968,94.822,101.968,96.006z M98.898,96.046c0,0.848,0.487,1.487,1.175,1.487c0.672,0,1.176-0.632,1.176-1.504
		c0-0.655-0.328-1.486-1.159-1.486C99.257,94.543,98.898,95.31,98.898,96.046z"/>
	<path d="M102.859,92.296h0.703v5.677h-0.703V92.296z"/>
	<path d="M105.442,95.878h0.016c0.097-0.136,0.232-0.304,0.344-0.439l1.136-1.336h0.848l-1.495,1.592l1.703,2.278h-0.855
		l-1.336-1.855l-0.359,0.4v1.455h-0.695v-5.677h0.695V95.878z"/>
	<path d="M108.89,96.166c0.016,0.951,0.623,1.343,1.327,1.343c0.504,0,0.808-0.088,1.071-0.2l0.12,0.504
		c-0.248,0.112-0.672,0.24-1.287,0.24c-1.191,0-1.903-0.783-1.903-1.951c0-1.167,0.688-2.087,1.815-2.087
		c1.263,0,1.599,1.111,1.599,1.823c0,0.144-0.016,0.256-0.023,0.328H108.89z M110.952,95.662c0.008-0.448-0.184-1.144-0.976-1.144
		c-0.711,0-1.023,0.655-1.079,1.144H110.952z"/>
</g>
<g>
	<path d="M36.439,48.269h1.761v14.203h-1.761V48.269z"/>
	<path d="M46.52,62.472l-0.14-1.221H46.32c-0.54,0.761-1.58,1.44-2.96,1.44c-1.961,0-2.961-1.38-2.961-2.78
		c0-2.341,2.08-3.621,5.821-3.601v-0.2c0-0.8-0.22-2.241-2.2-2.241c-0.9,0-1.841,0.28-2.521,0.72l-0.4-1.16
		c0.8-0.52,1.96-0.86,3.181-0.86c2.961,0,3.681,2.021,3.681,3.961v3.621c0,0.84,0.04,1.66,0.16,2.32H46.52z M46.26,57.531
		c-1.921-0.04-4.101,0.301-4.101,2.181c0,1.141,0.76,1.681,1.66,1.681c1.26,0,2.061-0.801,2.34-1.62
		c0.061-0.181,0.101-0.381,0.101-0.561V57.531z"/>
	<path d="M50.718,62.472c0.04-0.66,0.08-1.641,0.08-2.501V48.269h1.741v6.082h0.039c0.62-1.081,1.741-1.781,3.301-1.781
		c2.401,0,4.102,2,4.081,4.941c0,3.461-2.181,5.181-4.341,5.181c-1.4,0-2.521-0.54-3.24-1.82h-0.061l-0.08,1.601H50.718z
		 M52.539,58.592c0,0.22,0.039,0.44,0.079,0.641c0.341,1.22,1.36,2.06,2.641,2.06c1.841,0,2.941-1.5,2.941-3.721
		c0-1.94-1.001-3.601-2.881-3.601c-1.2,0-2.32,0.82-2.681,2.16c-0.04,0.2-0.1,0.44-0.1,0.721V58.592z"/>
	<path d="M63.158,57.952c0.04,2.38,1.561,3.36,3.32,3.36c1.261,0,2.021-0.22,2.681-0.5l0.301,1.26
		c-0.62,0.28-1.681,0.601-3.221,0.601c-2.98,0-4.762-1.961-4.762-4.881c0-2.921,1.721-5.222,4.541-5.222
		c3.161,0,4.001,2.781,4.001,4.562c0,0.359-0.04,0.64-0.06,0.82H63.158z M68.32,56.691c0.021-1.12-0.46-2.86-2.44-2.86
		c-1.78,0-2.561,1.64-2.7,2.86H68.32z"/>
	<path d="M72.198,48.269h1.761v14.203h-1.761V48.269z"/>
</g>
<g>
	<path d="M9.219,56.306c0.014,0.833,0.546,1.177,1.163,1.177c0.441,0,0.708-0.077,0.938-0.175l0.105,0.441
		c-0.217,0.098-0.588,0.21-1.127,0.21c-1.043,0-1.667-0.686-1.667-1.708c0-1.023,0.603-1.828,1.59-1.828
		c1.106,0,1.401,0.974,1.401,1.597c0,0.126-0.014,0.224-0.021,0.287H9.219z M11.026,55.865c0.007-0.393-0.161-1.001-0.854-1.001
		c-0.624,0-0.896,0.574-0.946,1.001H11.026z"/>
	<path d="M13.125,53.526v0.974h0.882v0.469h-0.882v1.828c0,0.42,0.119,0.659,0.462,0.659c0.161,0,0.28-0.021,0.357-0.042
		l0.028,0.462c-0.119,0.049-0.308,0.084-0.546,0.084c-0.287,0-0.518-0.091-0.665-0.259c-0.175-0.182-0.238-0.483-0.238-0.883v-1.849
		h-0.525v-0.469h0.525v-0.812L13.125,53.526z"/>
	<path d="M15.386,53.547c0.007,0.21-0.147,0.378-0.392,0.378c-0.217,0-0.372-0.168-0.372-0.378c0-0.217,0.161-0.385,0.385-0.385
		C15.239,53.161,15.386,53.329,15.386,53.547z M14.699,57.889v-3.39h0.616v3.39H14.699z"/>
	<path d="M18.754,57.763c-0.161,0.084-0.519,0.196-0.974,0.196c-1.022,0-1.688-0.693-1.688-1.729c0-1.044,0.714-1.8,1.821-1.8
		c0.364,0,0.687,0.091,0.854,0.175l-0.14,0.476c-0.147-0.084-0.378-0.161-0.715-0.161c-0.777,0-1.197,0.574-1.197,1.282
		c0,0.785,0.504,1.268,1.176,1.268c0.351,0,0.582-0.091,0.757-0.168L18.754,57.763z"/>
	<path d="M19.473,52.916h0.616v2.115h0.014c0.098-0.175,0.252-0.329,0.441-0.435c0.182-0.105,0.399-0.175,0.63-0.175
		c0.455,0,1.184,0.28,1.184,1.45v2.017h-0.617v-1.947c0-0.546-0.203-1.008-0.784-1.008c-0.399,0-0.714,0.28-0.827,0.616
		c-0.035,0.084-0.042,0.175-0.042,0.294v2.045h-0.616V52.916z"/>
	<path d="M23.702,56.306c0.014,0.833,0.546,1.177,1.163,1.177c0.441,0,0.708-0.077,0.938-0.175l0.105,0.441
		c-0.217,0.098-0.588,0.21-1.127,0.21c-1.043,0-1.667-0.686-1.667-1.708c0-1.023,0.603-1.828,1.59-1.828
		c1.106,0,1.401,0.974,1.401,1.597c0,0.126-0.014,0.224-0.021,0.287H23.702z M25.509,55.865c0.007-0.393-0.161-1.001-0.854-1.001
		c-0.624,0-0.896,0.574-0.946,1.001H25.509z"/>
	<path d="M27.608,53.526v0.974h0.882v0.469h-0.882v1.828c0,0.42,0.119,0.659,0.462,0.659c0.161,0,0.28-0.021,0.357-0.042
		l0.028,0.462c-0.119,0.049-0.308,0.084-0.546,0.084c-0.287,0-0.518-0.091-0.665-0.259c-0.175-0.182-0.238-0.483-0.238-0.883v-1.849
		H26.48v-0.469h0.525v-0.812L27.608,53.526z"/>
	<path d="M29.925,53.526v0.974h0.882v0.469h-0.882v1.828c0,0.42,0.119,0.659,0.462,0.659c0.161,0,0.28-0.021,0.357-0.042
		l0.028,0.462c-0.119,0.049-0.308,0.084-0.546,0.084c-0.287,0-0.518-0.091-0.665-0.259c-0.175-0.182-0.238-0.483-0.238-0.883v-1.849
		h-0.525v-0.469h0.525v-0.812L29.925,53.526z"/>
	<path d="M33.376,57.889l-0.049-0.427h-0.021c-0.189,0.266-0.553,0.504-1.037,0.504c-0.687,0-1.037-0.483-1.037-0.974
		c0-0.819,0.729-1.268,2.038-1.261v-0.07c0-0.28-0.077-0.785-0.771-0.785c-0.315,0-0.644,0.098-0.882,0.252l-0.14-0.406
		c0.28-0.182,0.687-0.301,1.114-0.301c1.037,0,1.289,0.708,1.289,1.387v1.268c0,0.294,0.014,0.582,0.056,0.812H33.376z
		 M33.285,56.159c-0.672-0.014-1.436,0.105-1.436,0.764c0,0.399,0.266,0.588,0.582,0.588c0.441,0,0.721-0.28,0.819-0.567
		c0.021-0.063,0.035-0.133,0.035-0.196V56.159z"/>
</g>
<g>
	<path d="M15.457,22.661c-0.184,0.096-0.592,0.224-1.111,0.224c-1.167,0-1.927-0.792-1.927-1.975c0-1.191,0.815-2.055,2.079-2.055
		c0.416,0,0.783,0.104,0.976,0.2l-0.16,0.544c-0.168-0.096-0.432-0.184-0.815-0.184c-0.888,0-1.367,0.656-1.367,1.463
		c0,0.896,0.576,1.447,1.343,1.447c0.399,0,0.664-0.104,0.863-0.192L15.457,22.661z"/>
	<path d="M16.282,17.129h0.704v2.415h0.016c0.112-0.2,0.288-0.376,0.504-0.496c0.208-0.12,0.456-0.2,0.719-0.2
		c0.52,0,1.352,0.32,1.352,1.655v2.303h-0.704v-2.223c0-0.624-0.232-1.151-0.896-1.151c-0.456,0-0.815,0.32-0.943,0.704
		c-0.04,0.096-0.048,0.2-0.048,0.335v2.335h-0.704V17.129z"/>
	<path d="M22.865,22.805l-0.056-0.488h-0.024c-0.216,0.304-0.631,0.576-1.183,0.576c-0.784,0-1.184-0.552-1.184-1.111
		c0-0.936,0.832-1.447,2.327-1.439v-0.08c0-0.32-0.088-0.896-0.879-0.896c-0.36,0-0.735,0.112-1.007,0.288l-0.16-0.464
		c0.32-0.208,0.784-0.344,1.271-0.344c1.183,0,1.471,0.808,1.471,1.583v1.447c0,0.336,0.016,0.664,0.064,0.928H22.865z
		 M22.761,20.83c-0.768-0.016-1.639,0.12-1.639,0.872c0,0.456,0.304,0.672,0.664,0.672c0.504,0,0.824-0.32,0.936-0.648
		c0.024-0.072,0.04-0.152,0.04-0.224V20.83z"/>
	<path d="M25.426,17.824v1.111h1.007v0.536h-1.007v2.087c0,0.479,0.136,0.751,0.528,0.751c0.184,0,0.32-0.024,0.408-0.048
		l0.032,0.528c-0.136,0.056-0.352,0.096-0.624,0.096c-0.328,0-0.591-0.104-0.759-0.296c-0.2-0.208-0.272-0.552-0.272-1.007v-2.111
		h-0.6v-0.536h0.6v-0.927L25.426,17.824z"/>
</g>
</svg>
